<svg xmlns="http://www.w3.org/2000/svg" width="96.838" height="48.621" viewBox="0 0 96.838 48.621">
    <defs>
        <style>
            .cls-1{fill:#a8a8a8}
        </style>
    </defs>
    <g id="logo" transform="translate(-245.44 -394.383)">
        <path id="Path_1662" d="M246.392 571.369s-3.372 17.179 2.579 17.179 8.728-7.776 8.728-7.776.912 8.173 5.713 8.173 11.228-6.678 12.18-27.2c0 0 .529-5.607-3.809-5.607a1.5 1.5 0 0 0-1.5 1.468c-.113 5.429-.885 24.157-6.17 26.145 0 0-4.655 2.01.688-21.424 0 0 .688-4.073-2.751-3.967s-4.814 13.489-4.814 13.489-3.121 9.945-5.766 10.685.635-10.209.053-11.32a2.621 2.621 0 0 0-5.131.159z" class="cls-1" data-name="Path 1662" transform="translate(0 -145.94)"/>
        <path id="Path_1663" d="M558.312 633.922a73.718 73.718 0 0 0-2.538 20.962 2.768 2.768 0 0 0 3.763 1.143 1.364 1.364 0 0 0 .706-1.137 74.363 74.363 0 0 1 3.68-19.875 1.659 1.659 0 0 0-1.017-2.129 5.424 5.424 0 0 0-3.558-.082 1.658 1.658 0 0 0-1.036 1.118z" class="cls-1" data-name="Path 1663" transform="translate(-279.971 -214.877)"/>
        <path id="Path_1664" d="M593 533.948s.874 2.366 3.981.682a1.05 1.05 0 0 0 .521-.671 21.742 21.742 0 0 1 2.259-5.732.867.867 0 0 0-.377-1.245 4.033 4.033 0 0 0-4.519.5c-2.499 2.181-1.865 6.466-1.865 6.466z" class="cls-1" data-name="Path 1664" transform="translate(-313.523 -119.213)"/>
        <path id="Path_1665" d="M636.37 580.048c.7-2.7 3.352-11.077 12.084-12.056a4.806 4.806 0 0 1 3.036.628 3.077 3.077 0 0 1 1.4 3.813c-1.111 3.888-5.475 3.095-5.158-.159a10.233 10.233 0 0 0-5.818 6.658.587.587 0 0 0 .759.737c1.927-.718 5.883-1.726 8.113.817 2.539 2.9.079 8.054.079 8.054s-4.49 9.016-12.24 9.89a4.963 4.963 0 0 1-4.05-1.977c-1.1-1.623-1.087-8.151 2.642-8.523 1.4-.139 2.673 1.74 1.888 3.721a.412.412 0 0 0 .34.564c1.379.142 5.027-.2 7.886-6.839a2.221 2.221 0 0 0 .183-1.057c-.057-.686-.472-1.525-2.282-1.116-2.615.591-7.717 2.815-8.84-.9a4.185 4.185 0 0 1-.022-2.255z" class="cls-1" data-name="Path 1665" transform="translate(-350.525 -156.609)"/>
        <path id="Path_1666" d="M830.273 440.372c-2.213 3.774-8.9 14.755-10.273 38.15 0 0 1.442 3.564 4.775.866 0 0 1.587-13.648 3.015-16.4 2.847-5.482 5.131-6.242 6.083-5.872s-.265 3.862-2.275 9.68-1.9 12.8-.053 14.283c1.247 1 2.758.124 3.611-.553a1.24 1.24 0 0 0 .415-1.339 12.479 12.479 0 0 1-.323-5.99c.741-3.7 4.47-12.59 5.078-15.076.635-2.592-.476-5.3-3.809-5.343a13.56 13.56 0 0 0-7.035 2.063 56.229 56.229 0 0 1 6.771-14.177s-.339-3.126-3.3-2.355a4.415 4.415 0 0 0-2.68 2.063z" class="cls-1" data-name="Path 1666" transform="translate(-518.397 -39.524)"/>
        <path id="Path_1667" d="M1058.706 394.725a56.569 56.569 0 0 0-13.927 13.664s-1.114 4.3 1.573 4.707a1.365 1.365 0 0 0 1.249-.481 74.366 74.366 0 0 1 14.921-13.635 1.659 1.659 0 0 0 .473-2.312 5.422 5.422 0 0 0-2.788-2.211 1.658 1.658 0 0 0-1.501.268z" class="cls-1" data-name="Path 1667" transform="translate(-720.999)"/>
        <path id="Path_1668" d="M1056.264 398.546a53.9 53.9 0 0 1 10.476 12.9 2.573 2.573 0 0 1-1.713 3.839 4.03 4.03 0 0 1-.352.05 2.382 2.382 0 0 1-1.666-.557 45.881 45.881 0 0 0-11.009-12.46 1.461 1.461 0 0 1-.135-2.167 5.989 5.989 0 0 1 2.995-1.922 1.566 1.566 0 0 1 1.404.317z" class="cls-1" data-name="Path 1668" transform="translate(-727.22 -3.426)"/>
    </g>
</svg>
